<?xml version="1.0" encoding="UTF-8" standalone="no"?>
<svg
   xmlns:dc="http://purl.org/dc/elements/1.1/"
   xmlns:cc="http://creativecommons.org/ns#"
   xmlns:rdf="http://www.w3.org/1999/02/22-rdf-syntax-ns#"
   xmlns:svg="http://www.w3.org/2000/svg"
   xmlns="http://www.w3.org/2000/svg"
   xmlns:sodipodi="http://sodipodi.sourceforge.net/DTD/sodipodi-0.dtd"
   xmlns:inkscape="http://www.inkscape.org/namespaces/inkscape"
   width="235.60547"
   height="60.529999"
   version="1.1"
   id="svg4073"
   sodipodi:docname="logo_white.svg"
   inkscape:version="0.92.5 (2060ec1f9f, 2020-04-08)">
  <metadata
     id="metadata4079">
    <rdf:RDF>
      <cc:Work
         rdf:about="">
        <dc:format>image/svg+xml</dc:format>
        <dc:type
           rdf:resource="http://purl.org/dc/dcmitype/StillImage" />
      </cc:Work>
    </rdf:RDF>
  </metadata>
  <defs
     id="defs4077" />
  <sodipodi:namedview
     pagecolor="#ffffff"
     bordercolor="#666666"
     borderopacity="1"
     objecttolerance="10"
     gridtolerance="10"
     guidetolerance="10"
     inkscape:pageopacity="0"
     inkscape:pageshadow="2"
     inkscape:window-width="1680"
     inkscape:window-height="1013"
     id="namedview4075"
     showgrid="false"
     inkscape:zoom="2.1023256"
     inkscape:cx="108.5"
     inkscape:cy="30.264999"
     inkscape:window-x="0"
     inkscape:window-y="0"
     inkscape:window-maximized="1"
     inkscape:current-layer="svg4073" />
  <style
     type="text/css"
     id="style4058">.st0{fill-rule:evenodd;clip-rule:evenodd;}</style>
  <g
     id="g4063"
     transform="translate(1,1)">
    <title
       id="title4060">background</title>
    <rect
       x="-1"
       y="-1"
       width="217"
       height="60.529999"
       id="canvas_background"
       style="fill:none" />
  </g>
  <g
     id="g4071"
     transform="translate(1,1)">
    <title
       id="title4065">Layer 1</title>
    <g
       id="svg_1"
       stroke="null">
      <path
         class="st0"
         d="m 95.7185,16.02512 c 1.18208,0 2.13856,1.57008 2.13856,3.5011 0,1.93102 -0.95648,3.5011 -2.13856,3.5011 -1.18207,0 -2.13856,-1.57008 -2.13856,-3.5011 0,-1.93102 0.95649,-3.5011 2.13856,-3.5011 z M 5.97121,42.09388 C 4.61769,41.23665 4.04019,39.93727 4.06726,38.62887 c 0.01805,-0.65871 0.18949,-1.3084 0.49629,-1.89492 0.3068,-0.58653 0.74895,-1.10989 1.29938,-1.51594 0.82113,-0.60457 1.87688,-0.96551 3.08602,-0.87528 0.1534,-2.35512 0.45117,-4.5027 0.95649,-6.36153 0.64969,-2.3461 1.65129,-4.24103 3.14016,-5.49529 0.5775,-0.48727 1.13695,-0.87527 1.77762,-1.11891 0.46922,-0.17144 0.96551,-0.26168 1.48887,-0.23461 1.60618,-3.02286 3.52817,-5.68477 5.80208,-7.94966 2.45438,-2.44536 5.31482,-4.43052 8.6174,-5.91939 2.24684,-1.01063 4.25907,-1.75055 6.33447,-2.10246 2.11149,-0.36094 4.25005,-0.31583 6.74052,0.26168 1.11891,0.26168 2.25586,0.60457 3.39282,1.01062 0.86625,0.3068 1.72348,0.65871 2.58071,1.02868 0.01804,-0.01805 0.03609,-0.0361 0.05414,-0.05414 0.77602,-0.71286 2.1566,-0.83016 3.85301,-0.49629 1.43473,0.27972 3.18528,0.87527 5.00802,1.68738 4.5388,2.01223 9.63705,5.39603 11.55003,8.55424 0.23461,-0.04512 0.46922,-0.08121 0.71285,-0.10828 1.07379,-0.11731 2.11149,-0.05414 3.12212,0.14437 0.88429,0.18047 1.7325,0.4602 2.55363,0.81211 l 0.55946,-0.09023 C 77.04897,9.28459 80.59519,4.07806 85.44079,1.6327 c 3.44696,-1.74152 7.54361,-2.0393 11.41467,-1.155 3.85301,0.8843 7.50751,2.94165 10.11529,5.94646 4.03349,4.63805 5.56747,11.45979 1.47985,19.57187 -0.18047,0.36094 -0.52336,0.5775 -0.89332,0.6136 -1.33547,0.20754 -2.66192,0.2707 -3.98837,0.22558 -0.26168,-0.009 -0.52336,-0.01804 -0.79406,-0.03609 0.65871,0.69481 1.28133,1.39864 1.77762,2.14758 0.35191,0.51434 0.21656,1.21817 -0.3068,1.57008 l -0.0271,0.01805 c -5.58552,3.89813 -11.85682,3.99739 -19.01242,4.1147 -1.15501,0.01804 -2.33708,0.03609 -3.56427,0.07219 -5.32384,0.16242 -5.95548,0.52335 -9.45658,2.51754 -0.24363,0.13535 -0.50531,0.28875 -0.78504,0.44215 l 12.3892,17.40625 v 0 c 0.13536,0.18949 0.20754,0.41507 0.20754,0.65871 -0.009,0.62262 -0.51433,1.11891 -1.13695,1.11891 l -16.45879,-0.1895 c -0.71285,0.0361 -1.39863,-0.04511 -2.06637,-0.24363 -0.65871,-0.19852 -1.29035,-0.50531 -1.91297,-0.92942 -1.67836,-1.13695 -3.32063,-3.49207 -4.79146,-6.01864 -3.43793,2.16563 -7.20071,3.6545 -11.30639,4.36735 -3.95227,0.68579 -8.22036,0.65871 -12.82233,-0.18047 -0.31582,1.60618 -0.91137,2.98677 -1.85883,4.08763 -0.22558,0.26168 -0.53238,0.38801 -0.85723,0.38801 v 0 H 10.48294 c -0.04512,0 -0.09024,0 -0.13535,-0.009 -0.72188,-0.02708 -1.38059,0.009 -1.922,0.03609 -0.93844,0.0451 -1.62422,0.08119 -2.18368,-0.22561 -1.01062,-0.55945 -1.10988,-1.4257 -0.16242,-3.12211 0.99258,-1.77762 2.04833,-3.5372 3.2304,-5.24263 -0.13535,0.04512 -0.27071,0.08121 -0.40606,0.1173 -2.40024,0.64969 -5.06216,0.66774 -7.93162,0.1895 C 0.56616,49.84503 0.20522,49.57433 0.05182,49.16827 -0.17376,48.58175 0.12401,47.93206 0.70151,47.70647 2.05503,47.19213 3.21003,46.43416 4.13945,45.42354 4.94254,44.54826 5.5832,43.47447 6.07047,42.17509 6.05242,42.16607 6.0073,42.12998 5.97121,42.09388 Z m 5.19751,-7.06536 c 4.45759,2.98676 9.02346,4.79145 13.68858,5.40505 0.7309,-3.92521 0.71286,-7.15561 -0.02707,-9.71827 -0.49629,-1.49789 -1.17305,-2.7702 -2.03027,-3.81692 -1.4618,-1.66031 -3.52818,-2.81532 -6.1901,-3.46501 l -0.03609,-0.009 c -0.36996,-0.08121 -0.66774,-0.06316 -0.94746,0.04512 -0.34289,0.12633 -0.70383,0.38801 -1.10989,0.7309 -1.11891,0.93844 -1.89492,2.45438 -2.42731,4.37637 -0.51433,1.84079 -0.79406,4.03349 -0.92039,6.45178 z m 15.94445,5.62161 c 2.55364,0.12633 5.14337,-0.09024 7.76017,-0.65871 5.33286,-1.15501 10.8101,-3.74474 16.42269,-7.75115 l -6.06376,-6.65931 c -2.40024,-1.3445 -5.05314,-1.3084 -7.93162,-0.10828 -3.03188,1.25426 -6.3074,3.7718 -9.78143,7.29095 0.26168,2.29196 0.13536,4.91778 -0.40605,7.8865 z m 26.01462,-9.76338 0.18949,-0.14438 c 1.4979,-1.24523 4.232,-3.60938 6.98416,-6.02766 0.26168,-0.25266 0.53238,-0.51434 0.79406,-0.767 0.60457,-0.58652 1.1911,-1.22719 1.75958,-1.84078 1.58813,-1.71446 3.06797,-3.32064 5.17044,-4.2681 C 66.14864,15.23105 61.77226,12.42476 57.80194,10.66518 56.12358,9.92526 54.54447,9.37483 53.27217,9.1312 52.33373,8.95073 51.66599,8.90561 51.42236,9.04998 c -0.04512,0.1534 -0.11731,0.3068 -0.22559,0.43313 -0.75797,0.90235 -1.38961,1.97614 -1.91297,3.1943 -0.43313,1.0377 -0.78504,2.16563 -1.08282,3.36575 -0.31582,1.28133 -0.55945,2.63485 -0.73992,4.06056 -0.16242,1.32645 -0.27973,2.72508 -0.36094,4.18688 z M 77.16628,20.20298 c -2.82434,4.41247 -5.76599,8.34669 -8.83396,11.78463 l -0.45118,0.60457 1.29036,1.922 0.94746,1.32645 c 0.34289,-0.19852 0.67676,-0.38801 0.98356,-0.55946 3.90715,-2.22879 4.62001,-2.63485 10.51232,-2.81531 1.20012,-0.0361 2.40927,-0.05415 3.59134,-0.07219 6.36153,-0.10828 11.98315,-0.19852 16.8107,-3.10407 -0.54141,-0.64067 -1.16403,-1.28133 -1.77763,-1.90395 -0.43312,-0.44215 -0.86625,-0.8843 -1.24523,-1.29035 -0.25266,-0.25266 -0.37899,-0.6136 -0.31582,-0.99258 0.10828,-0.6136 0.6948,-1.02868 1.3084,-0.9204 1.24523,0.21657 2.47242,0.36094 3.68157,0.40606 1.01965,0.03609 2.0393,0 3.05895,-0.12633 3.27551,-6.90294 1.95809,-12.65088 -1.42571,-16.55804 C 103.01848,5.27818 99.78808,3.46447 96.38624,2.68845 93.00244,1.91243 89.4472,2.16509 86.48751,3.66298 82.20137,5.81959 79.11534,10.64714 79.51238,18.83141 v 0 c 0.02707,0.56848 -0.37899,1.07379 -0.95649,1.16403 z m -17.6589,19.92379 c -1.0377,0.76699 -2.08442,1.47985 -3.14919,2.13856 0.20754,0.40605 0.43313,0.83918 0.66774,1.29938 1.84078,3.59133 4.36735,8.52716 6.67735,10.08822 0.4241,0.28875 0.85723,0.49629 1.29938,0.63164 0.4241,0.12633 0.86625,0.18047 1.3084,0.1534 0.04512,0 0.09024,0 0.13535,0 L 80.68543,54.60039 69.09029,38.30403 C 68.96396,38.22282 68.85568,38.11454 68.76544,37.97919 L 67.32169,35.82258 66.2479,34.30664 c -1.47082,1.49789 -3.00481,2.89653 -4.61099,4.19591 -0.6948,0.56848 -1.40766,1.10988 -2.12953,1.62422 z m -5.10728,3.26649 c -6.03669,3.18528 -13.49007,4.57489 -20.76297,4.77341 0.12633,1.155 0.17144,2.24684 0.13535,3.27551 4.3854,0.82114 8.44595,0.85723 12.19069,0.20754 3.85301,-0.66773 7.37216,-2.07539 10.59354,-4.11469 -0.55044,-1.01966 -1.05575,-2.02126 -1.53399,-2.93263 -0.21657,-0.4241 -0.4241,-0.83016 -0.62262,-1.20914 z m -23.02786,4.80048 h -0.31582 c -0.52336,-0.009 -1.04672,-0.01805 -1.57008,-0.0361 -2.04833,-0.04511 -4.09665,-0.18949 -6.13595,-0.43312 -2.79727,-0.33387 -5.60357,-0.83918 -8.40986,-1.52497 -1.31743,1.40766 -2.48145,2.88751 -3.55525,4.41247 -1.20914,1.72348 -2.30098,3.51013 -3.3116,5.33287 l -0.00903,0.009 0.27071,-0.009 c 0.58652,-0.02707 1.29938,-0.07219 2.12953,-0.0361 h 0.0361 19.75234 c 0.59555,-0.8482 0.96551,-1.93102 1.13696,-3.20332 0.18949,-1.31743 0.17144,-2.83337 -0.01805,-4.51173 z M 12.50419,45.3694 C 10.76267,44.7919 9.24673,44.16025 8.01051,43.48349 7.44203,44.83701 6.71113,46.00104 5.81781,46.97557 5.48394,47.33651 5.13203,47.6794 4.75304,47.9862 c 1.26329,0 2.46341,-0.14438 3.58232,-0.44215 1.53398,-0.41508 2.9236,-1.12793 4.16883,-2.17465 z M 6.3141,38.67399 c -0.00902,0.56848 0.26168,1.155 0.90235,1.54301 v 0 c 0.05414,0.0361 0.10828,0.07219 0.16242,0.12633 3.09505,2.76118 11.9651,5.19751 21.90895,5.54943 1.01965,0.02707 2.03028,0.02707 3.04993,0.009 0.09926,0 0.19852,0.009 0.28875,0.03609 7.53459,-0.09925 15.31281,-1.47984 21.37657,-4.89071 0.08121,-0.09023 0.17144,-0.16242 0.27972,-0.22559 1.35352,-0.77601 2.67095,-1.62422 3.93423,-2.53559 2.4995,-1.85883 4.92681,-4.05153 7.29095,-6.56005 0.36997,-0.39703 0.73993,-0.79406 1.10989,-1.20914 L 74.73897,19.6796 c -0.35192,-0.11731 -0.71285,-0.21657 -1.07379,-0.28875 -0.77602,-0.1534 -1.58813,-0.20754 -2.42731,-0.10828 -1.00161,0.1173 -1.86786,0.40605 -2.6529,0.81211 -1.08281,1.155 -2.55364,2.55363 -4.17786,4.00641 -0.8482,0.75797 -1.74153,1.54301 -2.62582,2.32805 -2.3461,2.23782 -4.68318,4.25005 -6.99318,6.03669 -0.49629,0.41508 -0.87528,0.72188 -1.08282,0.87528 -0.09023,0.06316 -0.18047,0.1173 -0.27972,0.1534 -6.14498,4.52075 -12.16362,7.4263 -18.04692,8.69861 -3.07699,0.66774 -6.10888,0.8843 -9.09564,0.65871 -0.22559,0.12633 -0.50531,0.17145 -0.77602,0.10828 C 25.32652,42.92404 25.1641,42.84283 25.02875,42.72552 19.8944,42.12095 14.87736,40.18993 9.99567,36.92344 H 9.98665 c -0.27071,-0.009 -0.51434,-0.1173 -0.69481,-0.27973 -0.8482,-0.18949 -1.55203,-0.009 -2.05735,0.36094 -0.2707,0.20754 -0.49629,0.4602 -0.64066,0.74895 -0.18949,0.3068 -0.2707,0.61359 -0.27973,0.92039 z M 24.17152,25.04857 c 0.85723,0.90235 1.56106,1.94005 2.11149,3.12212 0.27973,0.60457 0.52336,1.25426 0.72188,1.93102 3.28453,-3.17626 6.44274,-5.47724 9.44755,-6.72248 2.99579,-1.23621 5.82916,-1.44375 8.48205,-0.43312 0.09926,-1.39864 0.23461,-2.75216 0.42411,-4.05153 v -0.009 l 0.009,-0.05414 c 0.18949,-1.29035 0.4241,-2.50852 0.72187,-3.66352 0.28876,-1.12793 0.63165,-2.18368 1.0377,-3.17626 0.37899,-0.94746 0.81211,-1.84078 1.3084,-2.67996 C 47.77688,9.03194 47.10914,8.77026 46.45946,8.53565 45.41273,8.17471 44.36601,7.85889 43.31027,7.61526 41.13562,7.11897 39.26776,7.07385 37.44502,7.38065 c -1.85883,0.31582 -3.69961,1.0016 -5.78403,1.93102 -3.04091,1.36254 -5.67576,3.20332 -7.94064,5.45919 -1.95809,1.95809 -3.64548,4.24102 -5.08021,6.81271 2.10247,0.65871 3.87106,1.72348 5.30579,3.22137 0.07219,0.08121 0.14438,0.16242 0.22559,0.24363 z M 7.36082,55.99903 c 0,0 0.06317,0 0.16243,-0.009 -0.19852,-0.04511 -0.3429,-0.09023 -0.16243,0.009 z"
         id="svg_2"
         stroke="null"
         inkscape:connector-curvature="0"
         style="clip-rule:evenodd;fill:#ffffff;fill-rule:evenodd" />
    </g>
    <text
       x="119.53906"
       y="32.315014"
       id="svg_3"
       font-size="21"
       xml:space="preserve"
       font-weight="normal"
       font-style="normal"
       style="font-style:normal;font-weight:normal;font-size:21px;font-family:'Trebuchet MS', Gadget, sans-serif;text-anchor:start;fill:#ffffff;stroke:#ff0000;stroke-width:0">autodoc</text>
    <text
       x="119"
       y="52.315014"
       id="svg_4"
       font-size="24"
       xml:space="preserve"
       font-weight="bold"
       style="font-weight:bold;font-size:24px;font-family:'Trebuchet MS', Gadget, sans-serif;text-anchor:start;fill:#ffffff;stroke:#ff0000;stroke-width:0">pydantic</text>
  </g>
</svg>
