<svg width="215" height="58.53" xmlns="http://www.w3.org/2000/svg">
 <style type="text/css">.st0{fill-rule:evenodd;clip-rule:evenodd;}</style>

 <g>
  <title>background</title>
  <rect fill="none" id="canvas_background" height="60.53" width="217" y="-1" x="-1"/>
 </g>
 <g>
  <title>Layer 1</title>
  <g stroke="null" id="svg_1">
   <path stroke="null" fill="#2980b9" id="svg_2" d="m95.718502,16.025117c1.182073,0 2.138559,1.570081 2.138559,3.501101c0,1.93102 -0.956486,3.501101 -2.138559,3.501101c-1.182073,0 -2.138559,-1.570081 -2.138559,-3.501101c0,-1.93102 0.956486,-3.501101 2.138559,-3.501101l0,0zm-89.747293,26.068764c-1.353518,-0.857228 -1.93102,-2.156606 -1.903949,-3.465007c0.018047,-0.658712 0.189493,-1.308401 0.49629,-1.894926c0.306798,-0.586525 0.748947,-1.109885 1.299378,-1.515941c0.821134,-0.604572 1.876879,-0.96551 3.086022,-0.875275c0.153399,-2.355122 0.451173,-4.502705 0.956486,-6.361536c0.649689,-2.346099 1.651292,-4.241024 3.140163,-5.495285c0.577501,-0.487267 1.136955,-0.875275 1.777621,-1.118909c0.46922,-0.171446 0.96551,-0.26168 1.48887,-0.23461c1.606175,-3.022858 3.528171,-5.684777 5.802082,-7.949665c2.45438,-2.445357 5.314816,-4.430517 8.6174,-5.919387c2.246841,-1.010627 4.259071,-1.75055 6.334466,-2.102465c2.111489,-0.360938 4.250048,-0.315821 6.740522,0.26168c1.118909,0.26168 2.255864,0.604572 3.392819,1.010627c0.866252,0.306798 1.72348,0.658712 2.580708,1.028674c0.018047,-0.018047 0.036094,-0.036094 0.054141,-0.054141c0.776017,-0.712853 2.156606,-0.830158 3.853016,-0.49629c1.43473,0.279727 3.18528,0.875275 5.008018,1.687386c4.538798,2.012231 9.637051,5.396027 11.550024,8.554236c0.23461,-0.045117 0.46922,-0.081211 0.712853,-0.108281c1.073791,-0.117305 2.111489,-0.054141 3.122116,0.144375c0.884299,0.180469 1.732504,0.460196 2.553638,0.812111l0.559454,-0.090235c-0.144375,-8.626424 3.401843,-13.832958 8.247439,-16.278315c3.44696,-1.741527 7.543609,-2.039301 11.414672,-1.155002c3.853016,0.884299 7.507515,2.941647 10.115294,5.946457c4.033485,4.638056 5.567472,11.459789 1.479847,19.571876c-0.180469,0.360938 -0.52336,0.577501 -0.893322,0.613595c-1.335471,0.207539 -2.66192,0.270704 -3.988368,0.225586c-0.26168,-0.009023 -0.52336,-0.018047 -0.794064,-0.036094c0.658712,0.694806 1.281331,1.398636 1.777621,2.147583c0.351915,0.514337 0.216563,1.218167 -0.306798,1.570081l-0.02707,0.018047c-5.585519,3.898133 -11.856821,3.997391 -19.012422,4.114696c-1.155002,0.018047 -2.337075,0.036094 -3.564265,0.072188c-5.323839,0.162422 -5.955481,0.52336 -9.456582,2.517544c-0.243633,0.135352 -0.505314,0.288751 -0.785041,0.442149l12.389205,17.406247l0,0c0.135352,0.189493 0.207539,0.415079 0.207539,0.658712c-0.009023,0.622618 -0.514337,1.118909 -1.136955,1.118909l-16.458784,-0.189493c-0.712853,0.036094 -1.398636,-0.045117 -2.066371,-0.243633c-0.658712,-0.198516 -1.290354,-0.505314 -1.912973,-0.929416c-1.678363,-1.136955 -3.320632,-3.492077 -4.791455,-6.018645c-3.437937,2.165629 -7.200718,3.6545 -11.30639,4.367353c-3.952274,0.685783 -8.220368,0.658712 -12.822331,-0.180469c-0.315821,1.606175 -0.911369,2.986764 -1.858832,4.087626c-0.225586,0.26168 -0.532384,0.388009 -0.857228,0.388009l0,0l-20.302776,0c-0.045117,0 -0.090235,0 -0.135352,-0.009023c-0.721876,-0.02707 -1.380589,0.009023 -1.921996,0.036094c-0.938439,0.045117 -1.624222,0.081211 -2.183676,-0.225586c-1.010627,-0.559454 -1.109885,-1.425706 -0.162422,-3.122116c0.99258,-1.777621 2.048325,-3.537195 3.230397,-5.242628c-0.135352,0.045117 -0.270704,0.081211 -0.406056,0.117305c-2.400239,0.649689 -5.062159,0.667736 -7.931618,0.189493c-0.406056,-0.045117 -0.766994,-0.315821 -0.920393,-0.721876c-0.225586,-0.586525 0.072188,-1.236213 0.649689,-1.4618c1.353518,-0.514337 2.508521,-1.272307 3.437937,-2.282934c0.803088,-0.875275 1.443753,-1.949066 1.93102,-3.248444c-0.018047,-0.009023 -0.063164,-0.045117 -0.099258,-0.081211l0,0zm5.197511,-7.065366c4.457587,2.986764 9.023456,4.791455 13.688583,5.40505c0.7309,-3.925203 0.712853,-7.155601 -0.02707,-9.718262c-0.49629,-1.497894 -1.173049,-2.770201 -2.030278,-3.816922c-1.4618,-1.660316 -3.528171,-2.815318 -6.190091,-3.465007l-0.036094,-0.009023c-0.369962,-0.081211 -0.667736,-0.063164 -0.947463,0.045117c-0.342891,0.126328 -0.70383,0.388009 -1.109885,0.7309c-1.118909,0.938439 -1.894926,2.45438 -2.42731,4.376376c-0.514337,1.840785 -0.794064,4.033485 -0.920393,6.451771l0,0zm15.944447,5.621613c2.553638,0.126328 5.14337,-0.090235 7.760172,-0.658712c5.332862,-1.155002 10.8101,-3.744734 16.42269,-7.751149l-6.063762,-6.659311c-2.400239,-1.344495 -5.053135,-1.308401 -7.931618,-0.108281c-3.031881,1.25426 -6.307396,3.771805 -9.781426,7.290952c0.26168,2.291958 0.135352,4.917784 -0.406056,7.886501l0,0zm26.014624,-9.763379l0.189493,-0.144375c1.497894,-1.245237 4.232001,-3.609382 6.984155,-6.027669c0.26168,-0.252657 0.532384,-0.514337 0.794064,-0.766994c0.604572,-0.586525 1.191096,-1.22719 1.759574,-1.840785c1.588128,-1.714457 3.067975,-3.320632 5.17044,-4.268095c-1.876879,-2.607779 -6.253255,-5.414074 -10.223576,-7.173648c-1.678363,-0.739923 -3.257468,-1.290354 -4.529775,-1.533988c-0.938439,-0.180469 -1.606175,-0.225586 -1.849808,-0.081211c-0.045117,0.153399 -0.117305,0.306798 -0.225586,0.433126c-0.75797,0.902346 -1.389612,1.976137 -1.912973,3.194303c-0.433126,1.037697 -0.785041,2.165629 -1.082815,3.365749c-0.315821,1.281331 -0.559454,2.634849 -0.739923,4.060555c-0.162422,1.326448 -0.279727,2.725084 -0.360938,4.186884l6.027669,6.596146l0,0zm24.038487,-10.683772c-2.824342,4.41247 -5.765988,8.346697 -8.833963,11.784634l-0.451173,0.604572l1.290354,1.921996l0.947463,1.326448c0.342891,-0.198516 0.676759,-0.388009 0.983557,-0.559454c3.907156,-2.228794 4.620009,-2.634849 10.512326,-2.815318c1.20012,-0.036094 2.409263,-0.054141 3.591335,-0.072188c6.361536,-0.108281 11.98315,-0.198516 16.810698,-3.104069c-0.541407,-0.640665 -1.164026,-1.281331 -1.777621,-1.903949c-0.433126,-0.442149 -0.866252,-0.884299 -1.245237,-1.290354c-0.252657,-0.252657 -0.378985,-0.613595 -0.315821,-0.99258c0.108281,-0.613595 0.694806,-1.028674 1.308401,-0.920393c1.245237,0.216563 2.472427,0.360938 3.68157,0.406056c1.019651,0.036094 2.039301,0 3.058952,-0.126328c3.275515,-6.902944 1.95809,-12.650885 -1.425706,-16.558042c-2.282934,-2.625826 -5.513332,-4.43954 -8.915175,-5.215558c-3.383796,-0.776017 -6.939038,-0.52336 -9.898731,0.974533c-4.286142,2.156606 -7.372164,6.984155 -6.975131,15.168429l0,0c0.02707,0.568478 -0.378985,1.073791 -0.956486,1.164026l-1.389612,0.207539l0,0zm-17.658903,19.923791c-1.037697,0.766994 -2.084418,1.479847 -3.149186,2.138559c0.207539,0.406056 0.433126,0.839181 0.667736,1.299378c1.840785,3.591335 4.367353,8.527166 6.677357,10.088224c0.424102,0.288751 0.857228,0.49629 1.299378,0.631642c0.424102,0.126328 0.866252,0.180469 1.308401,0.153399c0.045117,0 0.090235,0 0.135352,0l14.239014,0.162422l-11.595141,-16.296361c-0.126328,-0.081211 -0.23461,-0.189493 -0.324844,-0.324844l-1.443753,-2.156606l-1.073791,-1.515941c-1.470823,1.497894 -3.004811,2.896529 -4.610986,4.195907c-0.694806,0.568478 -1.407659,1.109885 -2.129536,1.624222l0,0zm-5.107276,3.266491c-6.036692,3.18528 -13.490067,4.574892 -20.762972,4.773408c0.126328,1.155002 0.171446,2.246841 0.135352,3.275515c4.3854,0.821134 8.445955,0.857228 12.190689,0.207539c3.853016,-0.667736 7.372164,-2.075395 10.593537,-4.114696c-0.550431,-1.019651 -1.055744,-2.021254 -1.533988,-2.932623c-0.216563,-0.424102 -0.424102,-0.830158 -0.622618,-1.209143l0,0zm-23.02786,4.800479l-0.315821,0c-0.52336,-0.009023 -1.046721,-0.018047 -1.570081,-0.036094c-2.048325,-0.045117 -4.096649,-0.189493 -6.13595,-0.433126c-2.797271,-0.333868 -5.603566,-0.839181 -8.409861,-1.524964c-1.317425,1.407659 -2.48145,2.887506 -3.555242,4.41247c-1.209143,1.72348 -2.300981,3.510124 -3.311608,5.332862l-0.009023,0.009023l0.270704,-0.009023c0.586525,-0.02707 1.299378,-0.072188 2.129536,-0.036094l0.036094,0l19.752345,0c0.595548,-0.848205 0.96551,-1.93102 1.136955,-3.203327c0.189493,-1.317425 0.171446,-2.833365 -0.018047,-4.511728l0,0zm-18.868046,-2.824342c-1.741527,-0.577501 -3.257468,-1.209143 -4.493681,-1.885902c-0.568478,1.353518 -1.299378,2.517544 -2.1927,3.492077c-0.333868,0.360938 -0.685783,0.70383 -1.064768,1.010627c1.263284,0 2.463403,-0.144375 3.582312,-0.442149c1.533988,-0.415079 2.9236,-1.127932 4.168837,-2.174653l0,0zm-6.190091,-6.695404c-0.009023,0.568478 0.26168,1.155002 0.902346,1.543011l0,0c0.054141,0.036094 0.108281,0.072188 0.162422,0.126328c3.095045,2.761178 11.965103,5.197511 21.908951,5.549425c1.019651,0.02707 2.030278,0.02707 3.049928,0.009023c0.099258,0 0.198516,0.009023 0.288751,0.036094c7.534586,-0.099258 15.312805,-1.479847 21.376567,-4.890713c0.081211,-0.090235 0.171446,-0.162422 0.279727,-0.225586c1.353518,-0.776017 2.670943,-1.624222 3.934227,-2.535591c2.499497,-1.858832 4.926807,-4.051532 7.290952,-6.560052c0.369962,-0.397032 0.739923,-0.794064 1.109885,-1.209143l8.12111,-10.837171c-0.351915,-0.117305 -0.712853,-0.216563 -1.073791,-0.288751c-0.776017,-0.153399 -1.588128,-0.207539 -2.42731,-0.108281c-1.001604,0.117305 -1.867855,0.406056 -2.652896,0.812111c-1.082815,1.155002 -2.553638,2.553638 -4.17786,4.006414c-0.848205,0.75797 -1.741527,1.543011 -2.625826,2.328052c-2.346099,2.237817 -4.683174,4.250048 -6.993178,6.036692c-0.49629,0.415079 -0.875275,0.721876 -1.082815,0.875275c-0.090235,0.063164 -0.180469,0.117305 -0.279727,0.153399c-6.144974,4.520751 -12.163619,7.426304 -18.046912,8.698612c-3.076998,0.667736 -6.10888,0.884299 -9.095644,0.658712c-0.225586,0.126328 -0.505314,0.171446 -0.776017,0.108281c-0.180469,-0.036094 -0.342891,-0.117305 -0.478243,-0.23461c-5.134346,-0.604572 -10.151388,-2.535591 -15.033078,-5.802082l-0.009023,0c-0.270704,-0.009023 -0.514337,-0.117305 -0.694806,-0.279727c-0.848205,-0.189493 -1.552034,-0.009023 -2.057348,0.360938c-0.270704,0.207539 -0.49629,0.460196 -0.640665,0.748947c-0.189493,0.306798 -0.270704,0.613595 -0.279727,0.920393l0,0zm17.857419,-13.625419c0.857228,0.902346 1.561058,1.940043 2.111489,3.122116c0.279727,0.604572 0.52336,1.25426 0.721876,1.93102c3.284538,-3.176257 6.442748,-5.477238 9.447558,-6.722475c2.995787,-1.236213 5.829153,-1.443753 8.482049,-0.433126c0.099258,-1.398636 0.23461,-2.752154 0.424102,-4.051532l0,-0.009023l0.009023,-0.054141c0.189493,-1.290354 0.424102,-2.508521 0.721876,-3.663523c0.288751,-1.127932 0.631642,-2.183676 1.037697,-3.176257c0.378985,-0.947463 0.812111,-1.840785 1.308401,-2.679966c-0.658712,-0.279727 -1.326448,-0.541407 -1.976137,-0.776017c-1.046721,-0.360938 -2.093442,-0.676759 -3.149186,-0.920393c-2.174653,-0.49629 -4.042508,-0.541407 -5.865246,-0.23461c-1.858832,0.315821 -3.699617,1.001604 -5.784035,1.93102c-3.040905,1.362542 -5.675754,3.203327 -7.940641,5.459191c-1.95809,1.95809 -3.645476,4.241024 -5.080206,6.812709c2.102465,0.658712 3.871063,1.72348 5.305792,3.221374c0.072188,0.081211 0.144375,0.162422 0.225586,0.243633l0,0zm-16.810698,30.950454c0,0 0.063164,0 0.162422,-0.009023c-0.198516,-0.045117 -0.342891,-0.090235 -0.162422,0.009023l0,0z" class="st0"/>
  </g>
  <text stroke="#FF0000" font-style="normal" font-weight="normal" xml:space="preserve" text-anchor="start" font-family="'Trebuchet MS', Gadget, sans-serif" font-size="21" id="svg_3" y="32.315015" x="119.539063" stroke-width="0" fill="#2980b9">autodoc</text>
  <text font-weight="bold" xml:space="preserve" text-anchor="start" font-family="'Trebuchet MS', Gadget, sans-serif" font-size="24" id="svg_4" y="52.315015" x="119" stroke-width="0" stroke="#FF0000" fill="#2980b9">pydantic</text>
 </g>
</svg>