<?xml version="1.0" encoding="UTF-8" standalone="no"?>
<svg
   xmlns:dc="http://purl.org/dc/elements/1.1/"
   xmlns:cc="http://creativecommons.org/ns#"
   xmlns:rdf="http://www.w3.org/1999/02/22-rdf-syntax-ns#"
   xmlns:svg="http://www.w3.org/2000/svg"
   xmlns="http://www.w3.org/2000/svg"
   xmlns:sodipodi="http://sodipodi.sourceforge.net/DTD/sodipodi-0.dtd"
   xmlns:inkscape="http://www.inkscape.org/namespaces/inkscape"
   width="235.60547"
   height="60.529999"
   version="1.1"
   id="svg3978"
   sodipodi:docname="logo_blue.svg"
   inkscape:version="0.92.5 (2060ec1f9f, 2020-04-08)">
  <metadata
     id="metadata3984">
    <rdf:RDF>
      <cc:Work
         rdf:about="">
        <dc:format>image/svg+xml</dc:format>
        <dc:type
           rdf:resource="http://purl.org/dc/dcmitype/StillImage" />
      </cc:Work>
    </rdf:RDF>
  </metadata>
  <defs
     id="defs3982" />
  <sodipodi:namedview
     pagecolor="#ffffff"
     bordercolor="#666666"
     borderopacity="1"
     objecttolerance="10"
     gridtolerance="10"
     guidetolerance="10"
     inkscape:pageopacity="0"
     inkscape:pageshadow="2"
     inkscape:window-width="1680"
     inkscape:window-height="1013"
     id="namedview3980"
     showgrid="false"
     inkscape:zoom="2.1023256"
     inkscape:cx="108.5"
     inkscape:cy="30.264999"
     inkscape:window-x="0"
     inkscape:window-y="0"
     inkscape:window-maximized="1"
     inkscape:current-layer="svg3978" />
  <style
     type="text/css"
     id="style3963">.st0{fill-rule:evenodd;clip-rule:evenodd;}</style>
  <g
     id="g3968"
     transform="translate(1,1)">
    <title
       id="title3965">background</title>
    <rect
       id="canvas_background"
       height="60.529999"
       width="217"
       y="-1"
       x="-1"
       style="fill:none" />
  </g>
  <g
     id="g3976"
     transform="translate(1,1)">
    <title
       id="title3970">Layer 1</title>
    <g
       stroke="null"
       id="svg_1">
      <path
         stroke="null"
         id="svg_2"
         d="m 95.718502,16.025117 c 1.182073,0 2.138559,1.570081 2.138559,3.501101 0,1.93102 -0.956486,3.501101 -2.138559,3.501101 -1.182073,0 -2.138559,-1.570081 -2.138559,-3.501101 0,-1.93102 0.956486,-3.501101 2.138559,-3.501101 z M 5.971209,42.093881 C 4.617691,41.236653 4.040189,39.937275 4.06726,38.628874 4.085307,37.970162 4.256753,37.320473 4.56355,36.733948 4.870348,36.147423 5.312497,35.624063 5.862928,35.218007 6.684062,34.613435 7.739807,34.252497 8.94895,34.342732 9.102349,31.98761 9.400123,29.840027 9.905436,27.981196 c 0.649689,-2.346099 1.651292,-4.241024 3.140163,-5.495285 0.577501,-0.487267 1.136955,-0.875275 1.777621,-1.118909 0.46922,-0.171446 0.96551,-0.26168 1.48887,-0.23461 1.606175,-3.022858 3.528171,-5.684777 5.802082,-7.949665 2.45438,-2.445357 5.314816,-4.430517 8.6174,-5.919387 2.246841,-1.010627 4.259071,-1.75055 6.334466,-2.102465 2.111489,-0.360938 4.250048,-0.315821 6.740522,0.26168 1.118909,0.26168 2.255864,0.604572 3.392819,1.010627 0.866252,0.306798 1.72348,0.658712 2.580708,1.028674 0.01805,-0.018047 0.03609,-0.036094 0.05414,-0.054141 0.776017,-0.712853 2.156606,-0.830158 3.853016,-0.49629 1.43473,0.279727 3.18528,0.875275 5.008018,1.687386 4.538798,2.012231 9.637051,5.396027 11.550024,8.554236 0.23461,-0.04512 0.46922,-0.08121 0.712853,-0.108281 1.073791,-0.117305 2.111489,-0.05414 3.122116,0.144375 0.884299,0.180469 1.732504,0.460196 2.553638,0.812111 l 0.559454,-0.09023 c -0.144374,-8.626429 3.401844,-13.832963 8.24744,-16.27832 3.44696,-1.741527 7.543609,-2.039301 11.414672,-1.155002 3.853012,0.884299 7.507512,2.941647 10.115292,5.946457 4.03349,4.638056 5.56747,11.459789 1.47985,19.571876 -0.18047,0.360938 -0.52336,0.577501 -0.89332,0.613595 -1.33547,0.207539 -2.66192,0.270704 -3.98837,0.225586 -0.26168,-0.009 -0.52336,-0.01805 -0.79406,-0.03609 0.65871,0.694806 1.28133,1.398636 1.77762,2.147583 0.35191,0.514337 0.21656,1.218167 -0.3068,1.570081 l -0.0271,0.01805 c -5.585521,3.898133 -11.856823,3.997391 -19.012424,4.114696 -1.155002,0.01805 -2.337075,0.03609 -3.564265,0.07219 -5.323839,0.162422 -5.955481,0.52336 -9.456582,2.517544 -0.243633,0.135352 -0.505314,0.288751 -0.785041,0.442149 l 12.389205,17.406247 v 0 c 0.135352,0.189493 0.207539,0.415079 0.207539,0.658712 -0.009,0.622618 -0.514337,1.118909 -1.136955,1.118909 L 66.401293,56.675783 c -0.712853,0.03609 -1.398636,-0.04512 -2.066371,-0.243633 -0.658712,-0.198516 -1.290354,-0.505314 -1.912973,-0.929416 -1.678363,-1.136955 -3.320632,-3.492077 -4.791455,-6.018645 -3.437937,2.165629 -7.200718,3.6545 -11.30639,4.367353 -3.952274,0.685783 -8.220368,0.658712 -12.822331,-0.180469 -0.315821,1.606175 -0.911369,2.986764 -1.858832,4.087626 -0.225586,0.26168 -0.532384,0.388009 -0.857228,0.388009 v 0 H 10.482937 c -0.04512,0 -0.09023,0 -0.135352,-0.009 -0.721876,-0.02707 -1.380589,0.009 -1.921996,0.03609 C 7.48715,58.218796 6.801367,58.25489 6.241913,57.948093 5.231286,57.388639 5.132028,56.522387 6.079491,54.825977 7.072071,53.048356 8.127816,51.288782 9.309888,49.583349 9.174536,49.628466 9.039184,49.66456 8.903832,49.700654 6.503593,50.350343 3.841673,50.36839 0.972214,49.890147 0.566158,49.84503 0.20522,49.574326 0.051821,49.168271 -0.173765,48.581746 0.124009,47.932058 0.70151,47.706471 2.055028,47.192134 3.210031,46.434164 4.139447,45.423537 4.942535,44.548262 5.5832,43.474471 6.070467,42.175093 6.05242,42.16607 6.007303,42.129976 5.971209,42.093882 Z m 5.197511,-7.065366 c 4.457587,2.986764 9.023456,4.791455 13.688583,5.40505 0.7309,-3.925203 0.712853,-7.155601 -0.02707,-9.718262 -0.49629,-1.497894 -1.173049,-2.770201 -2.030278,-3.816922 -1.4618,-1.660316 -3.528171,-2.815318 -6.190091,-3.465007 l -0.03609,-0.009 c -0.369962,-0.08121 -0.667736,-0.06316 -0.947463,0.04512 -0.342891,0.126328 -0.70383,0.388009 -1.109885,0.7309 -1.118909,0.938439 -1.894926,2.45438 -2.42731,4.376376 -0.514337,1.840785 -0.794064,4.033485 -0.920393,6.451771 z m 15.944447,5.621613 c 2.553638,0.126328 5.14337,-0.09023 7.760172,-0.658712 5.332862,-1.155002 10.8101,-3.744734 16.42269,-7.751149 l -6.063762,-6.659311 c -2.400239,-1.344495 -5.053135,-1.308401 -7.931618,-0.108281 -3.031881,1.25426 -6.307396,3.771805 -9.781426,7.290952 0.26168,2.291958 0.135352,4.917784 -0.406056,7.886501 z m 26.014624,-9.763379 0.189493,-0.144375 c 1.497894,-1.245237 4.232001,-3.609382 6.984155,-6.027669 0.26168,-0.252657 0.532384,-0.514337 0.794064,-0.766994 0.604572,-0.586525 1.191096,-1.22719 1.759574,-1.840785 1.588128,-1.714457 3.067975,-3.320632 5.17044,-4.268095 C 66.148638,15.231052 61.772262,12.424757 57.801941,10.665183 56.123578,9.92526 54.544473,9.374829 53.272166,9.131195 52.333727,8.950726 51.665991,8.905609 51.422358,9.049984 c -0.04512,0.153399 -0.117305,0.306798 -0.225586,0.433126 -0.75797,0.902346 -1.389612,1.976137 -1.912973,3.194303 -0.433126,1.037697 -0.785041,2.165629 -1.082815,3.365749 -0.315821,1.281331 -0.559454,2.634849 -0.739923,4.060555 -0.162422,1.326448 -0.279727,2.725084 -0.360938,4.186884 l 6.027669,6.596146 v 0 z M 77.166278,20.202977 c -2.824342,4.41247 -5.765988,8.346697 -8.833963,11.784634 l -0.451173,0.604572 1.290354,1.921996 0.947463,1.326448 c 0.342891,-0.198516 0.676759,-0.388009 0.983557,-0.559454 3.907156,-2.228794 4.620009,-2.634849 10.512326,-2.815318 1.20012,-0.03609 2.409263,-0.05414 3.591335,-0.07219 6.361536,-0.108281 11.98315,-0.198516 16.810703,-3.104069 -0.54141,-0.640665 -1.16403,-1.281331 -1.77763,-1.903949 C 99.806128,26.9435 99.373002,26.50135 98.994017,26.095295 98.74136,25.842638 98.615032,25.4817 98.678196,25.102715 c 0.108281,-0.613595 0.694806,-1.028674 1.308401,-0.920393 1.245233,0.216563 2.472423,0.360938 3.681573,0.406056 1.01965,0.03609 2.0393,0 3.05895,-0.126328 3.27551,-6.902944 1.95809,-12.650885 -1.42571,-16.558042 C 103.01848,5.278182 99.788081,3.464468 96.386238,2.68845 93.002442,1.912433 89.4472,2.16509 86.487507,3.662983 82.201365,5.819589 79.115343,10.647138 79.512376,18.831412 v 0 c 0.02707,0.568478 -0.378985,1.073791 -0.956486,1.164026 z M 59.507375,40.126768 c -1.037697,0.766994 -2.084418,1.479847 -3.149186,2.138559 0.207539,0.406056 0.433126,0.839181 0.667736,1.299378 1.840785,3.591335 4.367353,8.527166 6.677357,10.088224 0.424102,0.288751 0.857228,0.49629 1.299378,0.631642 0.424102,0.126328 0.866252,0.180469 1.308401,0.153399 0.04512,0 0.09024,0 0.135352,0 L 80.685427,54.600392 69.090286,38.304031 c -0.126328,-0.08121 -0.23461,-0.189493 -0.324844,-0.324844 L 67.321689,35.822581 66.247898,34.30664 c -1.470823,1.497894 -3.004811,2.896529 -4.610986,4.195907 -0.694806,0.568478 -1.407659,1.109885 -2.129536,1.624222 v 0 z m -5.107276,3.266491 c -6.036692,3.18528 -13.490067,4.574892 -20.762972,4.773408 0.126328,1.155002 0.171446,2.246841 0.135352,3.275515 4.3854,0.821134 8.445955,0.857228 12.190689,0.207539 3.853016,-0.667736 7.372164,-2.075395 10.593537,-4.114696 -0.550431,-1.019651 -1.055744,-2.021254 -1.533988,-2.932623 -0.216563,-0.424102 -0.424102,-0.830158 -0.622618,-1.209143 z m -23.02786,4.800479 h -0.315821 c -0.52336,-0.009 -1.046721,-0.01805 -1.570081,-0.03609 -2.048325,-0.04512 -4.096649,-0.189493 -6.13595,-0.433126 -2.797271,-0.333868 -5.603566,-0.839181 -8.409861,-1.524964 -1.317425,1.407659 -2.48145,2.887506 -3.555242,4.41247 -1.209143,1.72348 -2.300981,3.510124 -3.311608,5.332862 l -0.00902,0.009 0.270704,-0.009 C 8.921885,55.91782 9.634738,55.8727 10.464896,55.9088 h 0.03609 19.752345 c 0.595548,-0.848205 0.96551,-1.93102 1.136955,-3.203327 0.189493,-1.317425 0.171446,-2.833365 -0.01805,-4.511728 v 0 z M 12.504193,45.369396 c -1.741527,-0.577501 -3.257468,-1.209143 -4.493681,-1.885902 -0.568478,1.353518 -1.299378,2.517544 -2.1927,3.492077 -0.333868,0.360938 -0.685783,0.70383 -1.064768,1.010627 1.263284,0 2.463403,-0.144375 3.582312,-0.442149 1.533988,-0.415079 2.9236,-1.127932 4.168837,-2.174653 z M 6.314102,38.673992 c -0.00902,0.568478 0.26168,1.155002 0.902346,1.543011 v 0 c 0.054141,0.03609 0.108281,0.07219 0.162422,0.126328 3.095045,2.761178 11.965103,5.197511 21.908951,5.549425 1.019651,0.02707 2.030278,0.02707 3.049928,0.009 0.09926,0 0.198516,0.009 0.288751,0.03609 7.534586,-0.09926 15.312805,-1.479847 21.376567,-4.890713 0.08121,-0.09023 0.171446,-0.162422 0.279727,-0.225586 1.353518,-0.776017 2.670943,-1.624222 3.934227,-2.535591 2.499497,-1.858832 4.926807,-4.051532 7.290952,-6.560052 0.369962,-0.397032 0.739923,-0.794064 1.109885,-1.209143 L 74.738968,19.67959 C 74.387053,19.562285 74.026115,19.463027 73.665177,19.390839 72.88916,19.23744 72.077049,19.1833 71.237867,19.282558 c -1.001604,0.117305 -1.867855,0.406056 -2.652896,0.812111 -1.082815,1.155002 -2.553638,2.553638 -4.17786,4.006414 -0.848205,0.75797 -1.741527,1.543011 -2.625826,2.328052 -2.346099,2.237817 -4.683174,4.250048 -6.993178,6.036692 -0.49629,0.415079 -0.875275,0.721876 -1.082815,0.875275 -0.09023,0.06316 -0.180469,0.117305 -0.279727,0.153399 -6.144974,4.520751 -12.163619,7.426304 -18.046912,8.698612 -3.076998,0.667736 -6.10888,0.884299 -9.095644,0.658712 -0.225586,0.126328 -0.505314,0.171446 -0.776017,0.108281 -0.180469,-0.03609 -0.342891,-0.117305 -0.478243,-0.23461 C 19.894403,42.120951 14.877361,40.189932 9.995671,36.923441 h -0.00902 c -0.270704,-0.009 -0.514337,-0.117305 -0.694806,-0.279727 -0.848205,-0.189493 -1.552034,-0.009 -2.057348,0.360938 -0.270704,0.207539 -0.49629,0.460196 -0.640665,0.748947 -0.189493,0.306798 -0.270704,0.613595 -0.279727,0.920393 z M 24.171521,25.048573 c 0.857228,0.902346 1.561058,1.940043 2.111489,3.122116 0.279727,0.604572 0.52336,1.25426 0.721876,1.93102 3.284538,-3.176257 6.442748,-5.477238 9.447558,-6.722475 2.995787,-1.236213 5.829153,-1.443753 8.482049,-0.433126 0.09926,-1.398636 0.23461,-2.752154 0.424102,-4.051532 v -0.009 l 0.009,-0.05414 c 0.189493,-1.290354 0.424102,-2.508521 0.721876,-3.663523 0.288751,-1.127932 0.631642,-2.183676 1.037697,-3.176257 0.378985,-0.947463 0.812111,-1.840785 1.308401,-2.679966 C 47.77688,9.031939 47.109144,8.770259 46.459455,8.535649 45.412734,8.174711 44.366013,7.85889 43.310269,7.615256 41.135616,7.118966 39.267761,7.073849 37.445023,7.380646 c -1.858832,0.315821 -3.699617,1.001604 -5.784035,1.93102 -3.040905,1.362542 -5.675754,3.203327 -7.940641,5.459191 -1.95809,1.95809 -3.645476,4.241024 -5.080206,6.812709 2.102465,0.658712 3.871063,1.72348 5.305792,3.221374 0.07219,0.08121 0.144375,0.162422 0.225586,0.243633 v 0 z M 7.360823,55.999027 c 0,0 0.063164,0 0.162422,-0.009 -0.198516,-0.04512 -0.342891,-0.09023 -0.162422,0.009 z"
         class="st0"
         inkscape:connector-curvature="0"
         style="clip-rule:evenodd;fill:#2980b9;fill-rule:evenodd" />
    </g>
    <text
       font-style="normal"
       font-weight="normal"
       xml:space="preserve"
       font-size="21"
       id="svg_3"
       y="32.315014"
       x="119.53906"
       style="font-style:normal;font-weight:normal;font-size:21px;font-family:'Trebuchet MS', Gadget, sans-serif;text-anchor:start;fill:#2980b9;stroke:#ff0000;stroke-width:0">autodoc</text>
    <text
       font-weight="bold"
       xml:space="preserve"
       font-size="24"
       id="svg_4"
       y="52.315014"
       x="119"
       style="font-weight:bold;font-size:24px;font-family:'Trebuchet MS', Gadget, sans-serif;text-anchor:start;fill:#2980b9;stroke:#ff0000;stroke-width:0">pydantic</text>
  </g>
</svg>
