<svg width="215" height="58.53" xmlns="http://www.w3.org/2000/svg">
 <style type="text/css">.st0{fill-rule:evenodd;clip-rule:evenodd;}</style>

 <g>
  <title>background</title>
  <rect x="-1" y="-1" width="217" height="60.53" id="canvas_background" fill="none"/>
 </g>
 <g>
  <title>Layer 1</title>
  <g id="svg_1" stroke="null">
   <path class="st0" d="m95.7185,16.02512c1.18208,0 2.13856,1.57008 2.13856,3.5011c0,1.93102 -0.95648,3.5011 -2.13856,3.5011c-1.18207,0 -2.13856,-1.57008 -2.13856,-3.5011c0,-1.93102 0.95649,-3.5011 2.13856,-3.5011l0,0zm-89.74729,26.06876c-1.35352,-0.85723 -1.93102,-2.15661 -1.90395,-3.46501c0.01805,-0.65871 0.18949,-1.3084 0.49629,-1.89492c0.3068,-0.58653 0.74895,-1.10989 1.29938,-1.51594c0.82113,-0.60457 1.87688,-0.96551 3.08602,-0.87528c0.1534,-2.35512 0.45117,-4.5027 0.95649,-6.36153c0.64969,-2.3461 1.65129,-4.24103 3.14016,-5.49529c0.5775,-0.48727 1.13695,-0.87527 1.77762,-1.11891c0.46922,-0.17144 0.96551,-0.26168 1.48887,-0.23461c1.60618,-3.02286 3.52817,-5.68477 5.80208,-7.94966c2.45438,-2.44536 5.31482,-4.43052 8.6174,-5.91939c2.24684,-1.01063 4.25907,-1.75055 6.33447,-2.10246c2.11149,-0.36094 4.25005,-0.31583 6.74052,0.26168c1.11891,0.26168 2.25586,0.60457 3.39282,1.01062c0.86625,0.3068 1.72348,0.65871 2.58071,1.02868c0.01804,-0.01805 0.03609,-0.0361 0.05414,-0.05414c0.77602,-0.71286 2.1566,-0.83016 3.85301,-0.49629c1.43473,0.27972 3.18528,0.87527 5.00802,1.68738c4.5388,2.01223 9.63705,5.39603 11.55003,8.55424c0.23461,-0.04512 0.46922,-0.08121 0.71285,-0.10828c1.07379,-0.11731 2.11149,-0.05414 3.12212,0.14437c0.88429,0.18047 1.7325,0.4602 2.55363,0.81211l0.55946,-0.09023c-0.14438,-8.62643 3.40184,-13.83296 8.24744,-16.27832c3.44696,-1.74152 7.54361,-2.0393 11.41467,-1.155c3.85301,0.8843 7.50751,2.94165 10.11529,5.94646c4.03349,4.63805 5.56747,11.45979 1.47985,19.57187c-0.18047,0.36094 -0.52336,0.5775 -0.89332,0.6136c-1.33547,0.20754 -2.66192,0.2707 -3.98837,0.22558c-0.26168,-0.00902 -0.52336,-0.01804 -0.79406,-0.03609c0.65871,0.69481 1.28133,1.39864 1.77762,2.14758c0.35191,0.51434 0.21656,1.21817 -0.3068,1.57008l-0.02707,0.01805c-5.58552,3.89813 -11.85682,3.99739 -19.01242,4.1147c-1.15501,0.01804 -2.33708,0.03609 -3.56427,0.07219c-5.32384,0.16242 -5.95548,0.52335 -9.45658,2.51754c-0.24363,0.13535 -0.50531,0.28875 -0.78504,0.44215l12.3892,17.40625l0,0c0.13536,0.18949 0.20754,0.41507 0.20754,0.65871c-0.00902,0.62262 -0.51433,1.11891 -1.13695,1.11891l-16.45879,-0.1895c-0.71285,0.0361 -1.39863,-0.04511 -2.06637,-0.24363c-0.65871,-0.19852 -1.29035,-0.50531 -1.91297,-0.92942c-1.67836,-1.13695 -3.32063,-3.49207 -4.79146,-6.01864c-3.43793,2.16563 -7.20071,3.6545 -11.30639,4.36735c-3.95227,0.68579 -8.22036,0.65871 -12.82233,-0.18047c-0.31582,1.60618 -0.91137,2.98677 -1.85883,4.08763c-0.22558,0.26168 -0.53238,0.38801 -0.85723,0.38801l0,0l-20.30277,0c-0.04512,0 -0.09024,0 -0.13535,-0.00902c-0.72188,-0.02708 -1.38059,0.00902 -1.922,0.03609c-0.93844,0.04512 -1.62422,0.08121 -2.18368,-0.22559c-1.01062,-0.55945 -1.10988,-1.4257 -0.16242,-3.12211c0.99258,-1.77762 2.04833,-3.5372 3.2304,-5.24263c-0.13535,0.04512 -0.27071,0.08121 -0.40606,0.1173c-2.40024,0.64969 -5.06216,0.66774 -7.93162,0.1895c-0.40605,-0.04512 -0.76699,-0.31582 -0.92039,-0.72188c-0.22558,-0.58652 0.07219,-1.23621 0.64969,-1.4618c1.35352,-0.51434 2.50852,-1.27231 3.43794,-2.28293c0.80309,-0.87528 1.44375,-1.94907 1.93102,-3.24845c-0.01805,-0.00902 -0.06317,-0.04511 -0.09926,-0.08121l0,0zm5.19751,-7.06536c4.45759,2.98676 9.02346,4.79145 13.68858,5.40505c0.7309,-3.92521 0.71286,-7.15561 -0.02707,-9.71827c-0.49629,-1.49789 -1.17305,-2.7702 -2.03027,-3.81692c-1.4618,-1.66031 -3.52818,-2.81532 -6.1901,-3.46501l-0.03609,-0.00902c-0.36996,-0.08121 -0.66774,-0.06316 -0.94746,0.04512c-0.34289,0.12633 -0.70383,0.38801 -1.10989,0.7309c-1.11891,0.93844 -1.89492,2.45438 -2.42731,4.37637c-0.51433,1.84079 -0.79406,4.03349 -0.92039,6.45178l0,0zm15.94445,5.62161c2.55364,0.12633 5.14337,-0.09024 7.76017,-0.65871c5.33286,-1.15501 10.8101,-3.74474 16.42269,-7.75115l-6.06376,-6.65931c-2.40024,-1.3445 -5.05314,-1.3084 -7.93162,-0.10828c-3.03188,1.25426 -6.3074,3.7718 -9.78143,7.29095c0.26168,2.29196 0.13536,4.91778 -0.40605,7.8865l0,0zm26.01462,-9.76338l0.18949,-0.14438c1.4979,-1.24523 4.232,-3.60938 6.98416,-6.02766c0.26168,-0.25266 0.53238,-0.51434 0.79406,-0.767c0.60457,-0.58652 1.1911,-1.22719 1.75958,-1.84078c1.58813,-1.71446 3.06797,-3.32064 5.17044,-4.2681c-1.87688,-2.60778 -6.25326,-5.41407 -10.22358,-7.17365c-1.67836,-0.73992 -3.25747,-1.29035 -4.52977,-1.53398c-0.93844,-0.18047 -1.60618,-0.22559 -1.84981,-0.08122c-0.04512,0.1534 -0.11731,0.3068 -0.22559,0.43313c-0.75797,0.90235 -1.38961,1.97614 -1.91297,3.1943c-0.43313,1.0377 -0.78504,2.16563 -1.08282,3.36575c-0.31582,1.28133 -0.55945,2.63485 -0.73992,4.06056c-0.16242,1.32645 -0.27973,2.72508 -0.36094,4.18688l6.02767,6.59615l0,0zm24.03849,-10.68377c-2.82434,4.41247 -5.76599,8.34669 -8.83396,11.78463l-0.45118,0.60457l1.29036,1.922l0.94746,1.32645c0.34289,-0.19852 0.67676,-0.38801 0.98356,-0.55946c3.90715,-2.22879 4.62001,-2.63485 10.51232,-2.81531c1.20012,-0.0361 2.40927,-0.05415 3.59134,-0.07219c6.36153,-0.10828 11.98315,-0.19852 16.8107,-3.10407c-0.54141,-0.64067 -1.16403,-1.28133 -1.77763,-1.90395c-0.43312,-0.44215 -0.86625,-0.8843 -1.24523,-1.29035c-0.25266,-0.25266 -0.37899,-0.6136 -0.31582,-0.99258c0.10828,-0.6136 0.6948,-1.02868 1.3084,-0.9204c1.24523,0.21657 2.47242,0.36094 3.68157,0.40606c1.01965,0.03609 2.0393,0 3.05895,-0.12633c3.27551,-6.90294 1.95809,-12.65088 -1.42571,-16.55804c-2.28293,-2.62583 -5.51333,-4.43954 -8.91517,-5.21556c-3.3838,-0.77602 -6.93904,-0.52336 -9.89873,0.97453c-4.28614,2.15661 -7.37217,6.98416 -6.97513,15.16843l0,0c0.02707,0.56848 -0.37899,1.07379 -0.95649,1.16403l-1.38961,0.20754l0,0zm-17.6589,19.92379c-1.0377,0.76699 -2.08442,1.47985 -3.14919,2.13856c0.20754,0.40605 0.43313,0.83918 0.66774,1.29938c1.84078,3.59133 4.36735,8.52716 6.67735,10.08822c0.4241,0.28875 0.85723,0.49629 1.29938,0.63164c0.4241,0.12633 0.86625,0.18047 1.3084,0.1534c0.04512,0 0.09024,0 0.13535,0l14.23902,0.16242l-11.59514,-16.29636c-0.12633,-0.08121 -0.23461,-0.18949 -0.32485,-0.32484l-1.44375,-2.15661l-1.07379,-1.51594c-1.47082,1.49789 -3.00481,2.89653 -4.61099,4.19591c-0.6948,0.56848 -1.40766,1.10988 -2.12953,1.62422l0,0zm-5.10728,3.26649c-6.03669,3.18528 -13.49007,4.57489 -20.76297,4.77341c0.12633,1.155 0.17144,2.24684 0.13535,3.27551c4.3854,0.82114 8.44595,0.85723 12.19069,0.20754c3.85301,-0.66773 7.37216,-2.07539 10.59354,-4.11469c-0.55044,-1.01966 -1.05575,-2.02126 -1.53399,-2.93263c-0.21657,-0.4241 -0.4241,-0.83016 -0.62262,-1.20914l0,0zm-23.02786,4.80048l-0.31582,0c-0.52336,-0.00902 -1.04672,-0.01805 -1.57008,-0.0361c-2.04833,-0.04511 -4.09665,-0.18949 -6.13595,-0.43312c-2.79727,-0.33387 -5.60357,-0.83918 -8.40986,-1.52497c-1.31743,1.40766 -2.48145,2.88751 -3.55525,4.41247c-1.20914,1.72348 -2.30098,3.51013 -3.3116,5.33287l-0.00903,0.00902l0.27071,-0.00902c0.58652,-0.02707 1.29938,-0.07219 2.12953,-0.0361l0.0361,0l19.75234,0c0.59555,-0.8482 0.96551,-1.93102 1.13696,-3.20332c0.18949,-1.31743 0.17144,-2.83337 -0.01805,-4.51173l0,0zm-18.86805,-2.82434c-1.74152,-0.5775 -3.25746,-1.20915 -4.49368,-1.88591c-0.56848,1.35352 -1.29938,2.51755 -2.1927,3.49208c-0.33387,0.36094 -0.68578,0.70383 -1.06477,1.01063c1.26329,0 2.46341,-0.14438 3.58232,-0.44215c1.53398,-0.41508 2.9236,-1.12793 4.16883,-2.17465l0,0zm-6.19009,-6.69541c-0.00902,0.56848 0.26168,1.155 0.90235,1.54301l0,0c0.05414,0.0361 0.10828,0.07219 0.16242,0.12633c3.09505,2.76118 11.9651,5.19751 21.90895,5.54943c1.01965,0.02707 2.03028,0.02707 3.04993,0.00902c0.09926,0 0.19852,0.00902 0.28875,0.03609c7.53459,-0.09925 15.31281,-1.47984 21.37657,-4.89071c0.08121,-0.09023 0.17144,-0.16242 0.27972,-0.22559c1.35352,-0.77601 2.67095,-1.62422 3.93423,-2.53559c2.4995,-1.85883 4.92681,-4.05153 7.29095,-6.56005c0.36997,-0.39703 0.73993,-0.79406 1.10989,-1.20914l8.12111,-10.83717c-0.35192,-0.11731 -0.71285,-0.21657 -1.07379,-0.28875c-0.77602,-0.1534 -1.58813,-0.20754 -2.42731,-0.10828c-1.00161,0.1173 -1.86786,0.40605 -2.6529,0.81211c-1.08281,1.155 -2.55364,2.55363 -4.17786,4.00641c-0.8482,0.75797 -1.74153,1.54301 -2.62582,2.32805c-2.3461,2.23782 -4.68318,4.25005 -6.99318,6.03669c-0.49629,0.41508 -0.87528,0.72188 -1.08282,0.87528c-0.09023,0.06316 -0.18047,0.1173 -0.27972,0.1534c-6.14498,4.52075 -12.16362,7.4263 -18.04692,8.69861c-3.07699,0.66774 -6.10888,0.8843 -9.09564,0.65871c-0.22559,0.12633 -0.50531,0.17145 -0.77602,0.10828c-0.18047,-0.03609 -0.34289,-0.1173 -0.47824,-0.23461c-5.13435,-0.60457 -10.15139,-2.53559 -15.03308,-5.80208l-0.00902,0c-0.27071,-0.00902 -0.51434,-0.1173 -0.69481,-0.27973c-0.8482,-0.18949 -1.55203,-0.00902 -2.05735,0.36094c-0.2707,0.20754 -0.49629,0.4602 -0.64066,0.74895c-0.18949,0.3068 -0.2707,0.61359 -0.27973,0.92039l0,0zm17.85742,-13.62542c0.85723,0.90235 1.56106,1.94005 2.11149,3.12212c0.27973,0.60457 0.52336,1.25426 0.72188,1.93102c3.28453,-3.17626 6.44274,-5.47724 9.44755,-6.72248c2.99579,-1.23621 5.82916,-1.44375 8.48205,-0.43312c0.09926,-1.39864 0.23461,-2.75216 0.42411,-4.05153l0,-0.00903l0.00902,-0.05414c0.18949,-1.29035 0.4241,-2.50852 0.72187,-3.66352c0.28876,-1.12793 0.63165,-2.18368 1.0377,-3.17626c0.37899,-0.94746 0.81211,-1.84078 1.3084,-2.67996c-0.65871,-0.27973 -1.32645,-0.54141 -1.97613,-0.77602c-1.04673,-0.36094 -2.09345,-0.67676 -3.14919,-0.92039c-2.17465,-0.49629 -4.04251,-0.54141 -5.86525,-0.23461c-1.85883,0.31582 -3.69961,1.0016 -5.78403,1.93102c-3.04091,1.36254 -5.67576,3.20332 -7.94064,5.45919c-1.95809,1.95809 -3.64548,4.24102 -5.08021,6.81271c2.10247,0.65871 3.87106,1.72348 5.30579,3.22137c0.07219,0.08121 0.14438,0.16242 0.22559,0.24363l0,0zm-16.8107,30.95046c0,0 0.06317,0 0.16243,-0.00903c-0.19852,-0.04511 -0.3429,-0.09023 -0.16243,0.00903l0,0z" id="svg_2" fill="#000000" stroke="null"/>
  </g>
  <text fill="#000000" stroke-width="0" x="119.539063" y="32.315015" id="svg_3" font-size="21" font-family="'Trebuchet MS', Gadget, sans-serif" text-anchor="start" xml:space="preserve" font-weight="normal" font-style="normal" stroke="#FF0000">autodoc</text>
  <text fill="#000000" stroke="#FF0000" stroke-width="0" x="119" y="52.315015" id="svg_4" font-size="24" font-family="'Trebuchet MS', Gadget, sans-serif" text-anchor="start" xml:space="preserve" font-weight="bold">pydantic</text>
 </g>
</svg>